<svg width="13" height="16" viewBox="0 0 13 16" fill="none" xmlns="http://www.w3.org/2000/svg">
<path id="Union" fill-rule="evenodd" clip-rule="evenodd" d="M1.74927 0.692017H10.8644C11.7946 0.692017 12.5531 1.45049 12.5509 2.38074V14.0033C12.5509 14.9335 11.7946 15.692 10.8622 15.692H1.74927C0.819024 15.692 0.0605469 14.9358 0.0605469 14.0033V2.38074C0.0605469 1.45049 0.816793 0.692017 1.74927 0.692017ZM10.8644 14.3535C11.0562 14.3535 11.2146 14.1974 11.2146 14.0033H11.2124V2.38074C11.2124 2.18889 11.0562 2.03051 10.8622 2.03051H1.74927C1.55742 2.03051 1.39904 2.18666 1.39904 2.38074V14.0033C1.39904 14.1951 1.55519 14.3535 1.74927 14.3535H10.8644ZM8.45064 4.22343C8.5488 3.8665 8.91688 3.65681 9.27381 3.75496C9.63074 3.85312 9.84044 4.2212 9.74228 4.5759C9.27158 6.28248 7.95986 7.34211 6.35591 7.34211C6.26444 7.34211 6.17298 7.33988 6.08152 7.33319C4.49318 7.21496 3.21269 6.11517 2.90037 4.59375C2.82453 4.23236 3.05876 3.87766 3.42015 3.80404C3.78155 3.72819 4.13625 3.96243 4.20986 4.32382C4.40171 5.25407 5.19365 5.92555 6.17967 5.99916C7.25716 6.0817 8.12717 5.39907 8.45064 4.22343Z" fill="white"/>
</svg>
