<svg width="30" height="31" viewBox="0 0 30 31" fill="none" xmlns="http://www.w3.org/2000/svg">
<g clip-path="url(#clip0_5145_942)">
<circle cx="14.9978" cy="15.6643" r="14.7264" fill="#77FBB9"/>
<path d="M10.9978 17.6644C10.9978 17.6644 12.4978 19.6644 14.9978 19.6644C17.4978 19.6644 18.9978 17.6644 18.9978 17.6644M17.9978 12.6644H18.0078M11.9978 12.6644H12.0078M24.9978 15.6644C24.9978 21.1872 20.5207 25.6644 14.9978 25.6644C9.47496 25.6644 4.9978 21.1872 4.9978 15.6644C4.9978 10.1415 9.47496 5.66437 14.9978 5.66437C20.5207 5.66437 24.9978 10.1415 24.9978 15.6644ZM18.4978 12.6644C18.4978 12.9405 18.2739 13.1644 17.9978 13.1644C17.7217 13.1644 17.4978 12.9405 17.4978 12.6644C17.4978 12.3882 17.7217 12.1644 17.9978 12.1644C18.2739 12.1644 18.4978 12.3882 18.4978 12.6644ZM12.4978 12.6644C12.4978 12.9405 12.2739 13.1644 11.9978 13.1644C11.7217 13.1644 11.4978 12.9405 11.4978 12.6644C11.4978 12.3882 11.7217 12.1644 11.9978 12.1644C12.2739 12.1644 12.4978 12.3882 12.4978 12.6644Z" stroke="black" stroke-linecap="round" stroke-linejoin="round"/>
</g>
<defs>
<clipPath id="clip0_5145_942">
<rect width="30" height="30" fill="white" transform="translate(-0.00219727 0.664368)"/>
</clipPath>
</defs>
</svg>
