<svg width="800" height="800" viewBox="0 0 800 800" fill="none" xmlns="http://www.w3.org/2000/svg">
<path fill-rule="evenodd" clip-rule="evenodd" d="M361.989 87.0882C361.989 108.084 379.009 125.099 400 125.099C420.989 125.099 438.009 108.084 438.009 87.0882C438.009 66.0949 420.989 49.0796 400 49.0796C379.009 49.0796 361.989 66.0949 361.989 87.0882ZM267.155 114.144C273.641 134.119 295.083 145.039 315.049 138.555C335.013 132.071 345.941 110.622 339.45 90.6646C332.969 70.6987 311.522 59.7704 291.56 66.2544C271.592 72.7471 260.664 94.1873 267.155 114.144ZM238.419 177.602C221.432 189.946 197.663 186.177 185.323 169.194C172.981 152.214 176.749 128.444 193.732 116.102C210.719 103.767 234.488 107.518 246.822 124.516C259.162 141.497 255.4 165.266 238.419 177.602ZM124.505 246.833C141.486 259.168 165.255 255.4 177.595 238.419C189.937 221.436 186.175 197.669 169.188 185.325C152.205 172.989 128.438 176.749 116.098 193.739C103.756 210.721 107.527 234.488 124.505 246.833ZM138.553 315.053C132.062 335.019 110.624 345.946 90.6564 339.461C70.6948 332.969 59.7664 311.529 66.2548 291.563C72.7367 271.606 94.1833 260.669 114.145 267.161C134.113 273.645 145.041 295.088 138.553 315.053ZM87.0883 438.017C108.077 438.017 125.099 421.002 125.099 400.009C125.099 379.013 108.077 362 87.0883 362C66.0928 362 49.0797 379.013 49.0797 400.009C49.0797 421.002 66.0928 438.017 87.0883 438.017ZM138.553 484.956C145.041 504.913 134.113 526.364 114.145 532.848C94.1833 539.332 72.7367 528.412 66.2548 508.446C59.7664 488.48 70.6948 467.04 90.6564 460.548C110.624 454.064 132.062 464.99 138.553 484.956ZM169.188 614.675C186.175 602.348 189.937 578.564 177.595 561.59C165.255 544.609 141.486 540.84 124.506 553.184C107.527 565.52 103.756 589.287 116.098 606.27C128.438 623.259 152.205 627.019 169.188 614.675ZM238.419 622.407C255.4 634.743 259.162 658.521 246.822 675.501C234.488 692.482 210.719 696.251 193.732 683.906C176.749 671.571 172.981 647.795 185.323 630.814C197.663 613.832 221.432 610.063 238.419 622.407ZM339.45 709.344C345.941 689.378 335.013 667.938 315.049 661.454C295.083 654.961 273.641 665.898 267.155 685.855C260.664 705.821 271.592 727.261 291.56 733.754C311.522 740.238 332.969 729.31 339.45 709.344ZM400 674.909C420.989 674.909 438.009 691.925 438.009 712.911C438.009 733.905 420.989 750.92 400 750.92C379.009 750.92 361.989 733.905 361.989 712.911C361.989 691.925 379.009 674.909 400 674.909ZM532.845 685.855C526.357 665.898 504.913 654.961 484.949 661.454C464.987 667.938 454.059 689.378 460.547 709.344C467.032 729.31 488.478 740.238 508.44 733.754C528.406 727.261 539.327 705.821 532.845 685.855ZM561.581 622.407C578.568 610.063 602.338 613.832 614.678 630.814C627.018 647.795 623.249 671.571 606.268 683.906C589.281 696.251 565.512 692.482 553.172 675.501C540.838 658.521 544.601 634.743 561.581 622.407ZM675.492 553.184C658.514 540.84 634.736 544.609 622.403 561.59C610.063 578.564 613.825 602.348 630.812 614.675C647.793 627.019 671.562 623.259 683.902 606.27C696.242 589.287 692.473 565.52 675.492 553.184ZM661.448 484.956C667.936 464.99 689.376 454.064 709.344 460.548C729.306 467.04 740.234 488.48 733.746 508.446C727.261 528.412 705.817 539.332 685.856 532.848C665.888 526.364 654.959 504.913 661.448 484.956ZM712.91 362C691.921 362 674.901 379.013 674.901 400.009C674.901 421.002 691.921 438.017 712.91 438.017C733.907 438.017 750.92 421.002 750.92 400.009C750.92 379.013 733.907 362 712.91 362ZM661.448 315.053C654.959 295.088 665.888 273.645 685.856 267.161C705.817 260.669 727.261 271.606 733.746 291.563C740.234 311.529 729.306 332.969 709.344 339.461C689.376 345.946 667.936 335.019 661.448 315.053ZM630.812 185.325C613.825 197.669 610.063 221.436 622.403 238.419C634.736 255.4 658.514 259.168 675.492 246.833C692.473 234.488 696.242 210.721 683.902 193.739C671.562 176.749 647.793 172.989 630.812 185.325ZM561.581 177.602C544.601 165.266 540.838 141.497 553.172 124.516C565.512 107.518 589.281 103.767 606.268 116.102C623.249 128.444 627.018 152.214 614.678 169.194C602.338 186.177 578.568 189.946 561.581 177.602ZM460.547 90.6646C454.059 110.622 464.987 132.071 484.949 138.555C504.913 145.039 526.357 134.119 532.845 114.144C539.327 94.1873 528.406 72.7471 508.44 66.2544C488.478 59.7704 467.032 70.6987 460.547 90.6646ZM260.971 264.159H194.233L269.713 567.4H342.125L402.787 354.486L462.566 567.4H535.429L610.909 264.159H544.152L496.594 484.485L437.26 264.159H367.88L311.6 484.485L260.971 264.159Z" fill="black"/>
</svg>
