<svg width="291" height="32" viewBox="0 0 291 32" fill="none" xmlns="http://www.w3.org/2000/svg">
<g clip-path="url(#clip0_4809_241)">
<path d="M0 0.618164H4.95972L11.1826 25.2716L17.7506 0.618164H22.8408L29.7148 25.2716L35.544 0.618164H40.5479L32.5855 31.3796H26.8869L20.2732 7.74567L13.6175 31.3796H8.00516L0 0.618164Z" fill="black"/>
<path d="M44.1444 0.618164H48.9729V13.4546H64.7657V0.618164H69.5942V31.3796H64.7657V17.8792H48.9729V31.3796H44.1444V0.618164Z" fill="black"/>
<path d="M73.1915 16.0225C73.1915 6.72768 79.6297 0 88.4615 0C97.2933 0 103.732 6.72768 103.732 16.0225C103.732 25.2723 97.2933 31.9993 88.4615 31.9993C79.6297 31.9993 73.1915 25.2723 73.1915 16.0225ZM98.6412 16.0225C98.6412 9.25056 94.4646 4.42611 88.4615 4.42611C82.5888 4.42611 78.3245 9.25056 78.3245 16.0225C78.3245 22.7944 82.5888 27.5739 88.4615 27.5739C94.4646 27.5739 98.6412 22.7944 98.6412 16.0225Z" fill="black"/>
<path d="M107.329 0.618164H112.158V26.9535H127.558V31.3796H107.329V0.618164Z" fill="black"/>
<path d="M131.156 0.618164H152.211V4.91296H135.983V13.6767H149.122V17.9692H135.983V27.0855H152.298V31.3796H131.156L131.156 0.618164Z" fill="black"/>
<path d="M250.249 0.000732422H262.256C268.738 0.000732422 273.088 3.58662 273.088 9.51759C273.088 15.4921 268.738 19.0772 262.256 19.0772H255.078V30.7622H250.249V0.000732422ZM261.952 14.7839C265.867 14.7839 267.998 12.8814 267.998 9.5176C267.998 6.15376 265.867 4.2948 261.952 4.2948H255.078V14.7839L261.952 14.7839Z" fill="black"/>
<path d="M277.238 1.51889H274.887V0H281.212V1.51889H278.874V7.76192H277.238V1.51889Z" fill="black"/>
<path d="M282.532 0H284.816L286.737 4.32283L288.705 0H291V7.76192H289.363V2.01019L287.541 6.13164H285.99L284.167 2.01019V7.76192H282.532V0Z" fill="black"/>
<path d="M223.812 0.000732422H235.819C242.301 0.000732422 246.652 3.58662 246.652 9.51759C246.652 15.4921 242.301 19.0772 235.819 19.0772H228.641V30.7622H223.812V0.000732422ZM235.515 14.7839C239.43 14.7839 241.562 12.8814 241.562 9.5176C241.562 6.15376 239.43 4.2948 235.515 4.2948H228.641V14.7839L235.515 14.7839Z" fill="black"/>
<path d="M167.514 22.6166C167.514 21.3338 167.775 19.9175 168.166 18.7217L172.69 20.0052C172.429 20.8027 172.342 21.6436 172.342 22.3953C172.342 25.8034 175.43 27.8394 179.999 27.8394C184.218 27.8394 186.829 25.9805 186.829 23.0143C186.829 20.4036 184.61 19.1208 181.782 18.5011L177.78 17.7044C170.906 16.3323 168.426 13.3218 168.426 8.85147C168.426 3.58514 172.951 0 179.129 0C186.785 0 190.788 3.80645 191.223 10.4013L186.438 11.0645C185.872 6.72768 183.74 4.16054 178.998 4.16054C175.648 4.16054 173.256 5.7982 173.256 8.63091C173.256 11.4636 175.866 12.6587 178.868 13.2776L182.87 14.075C189.309 15.3136 191.658 18.3233 191.658 22.6167C191.658 28.5034 186.568 31.9993 179.868 31.9993C171.907 31.9993 167.514 28.0165 167.514 22.6166Z" fill="black"/>
<path d="M195.255 19.4298V0.618896H200.083V19.1643C200.083 24.6076 202.694 27.5739 207.697 27.5739C212.657 27.5739 215.354 24.6076 215.354 19.1643V0.618896H220.183V19.4298C220.183 27.4846 215.789 32 207.697 32C199.692 32 195.255 27.4846 195.255 19.4298Z" fill="black"/>
</g>
<defs>
<clipPath id="clip0_4809_241">
<rect width="291" height="32" fill="white"/>
</clipPath>
</defs>
</svg>
