<svg width="30" height="31" viewBox="0 0 30 31" fill="none" xmlns="http://www.w3.org/2000/svg">
<g clip-path="url(#clip0_5145_954)">
<circle cx="14.9978" cy="15.6643" r="14.7264" fill="#FF6A76"/>
<path d="M18.9978 19.6644C18.9978 19.6644 17.4978 17.6644 14.9978 17.6644C12.4978 17.6644 10.9978 19.6644 10.9978 19.6644M19.9978 12.9044C19.6028 13.3894 19.0628 13.6644 18.4978 13.6644C17.9328 13.6644 17.4078 13.3894 16.9978 12.9044M12.9978 12.9044C12.6028 13.3894 12.0628 13.6644 11.4978 13.6644C10.9328 13.6644 10.4078 13.3894 9.9978 12.9044M24.9978 15.6644C24.9978 21.1872 20.5207 25.6644 14.9978 25.6644C9.47496 25.6644 4.9978 21.1872 4.9978 15.6644C4.9978 10.1415 9.47496 5.66437 14.9978 5.66437C20.5207 5.66437 24.9978 10.1415 24.9978 15.6644Z" stroke="black" stroke-linecap="round" stroke-linejoin="round"/>
</g>
<defs>
<clipPath id="clip0_5145_954">
<rect width="30" height="30" fill="white" transform="translate(-0.00219727 0.664368)"/>
</clipPath>
</defs>
</svg>
