<svg width="56" height="56" viewBox="0 0 56 56" fill="none" xmlns="http://www.w3.org/2000/svg">
<g clip-path="url(#clip0_5703_1659)">
<circle cx="28.2639" cy="27.6543" r="26.9983" stroke="black" stroke-linecap="round" stroke-dasharray="2 4"/>
<path d="M17.5695 29.1821C17.5695 24.1195 21.6735 20.0154 26.7361 20.0154M17.5695 29.1821C17.5695 31.7004 18.585 33.9816 20.2289 35.6384C20.3875 35.7982 20.4667 35.8781 20.5135 35.9549C20.5582 36.0282 20.5842 36.0913 20.6041 36.1748C20.625 36.2623 20.625 36.3619 20.625 36.561V40.1821C20.625 40.6099 20.625 40.8238 20.7083 40.9872C20.7815 41.1309 20.8984 41.2478 21.0421 41.321C21.2055 41.4043 21.4194 41.4043 21.8472 41.4043H24.75C25.1778 41.4043 25.3917 41.4043 25.5551 41.321C25.6989 41.2478 25.8157 41.1309 25.889 40.9872C25.9722 40.8238 25.9722 40.6099 25.9722 40.1821V39.571C25.9722 39.1431 25.9722 38.9292 26.0555 38.7658C26.1287 38.6221 26.2456 38.5052 26.3893 38.432C26.5527 38.3487 26.7666 38.3487 27.1945 38.3487H29.3333C29.7612 38.3487 29.9751 38.3487 30.1385 38.432C30.2822 38.5052 30.3991 38.6221 30.4723 38.7658C30.5556 38.9292 30.5556 39.1431 30.5556 39.571V40.1821C30.5556 40.6099 30.5556 40.8238 30.6388 40.9872C30.7121 41.1309 30.8289 41.2478 30.9727 41.321C31.1361 41.4043 31.35 41.4043 31.7778 41.4043H34.6807C35.1085 41.4043 35.3224 41.4043 35.4858 41.321C35.6295 41.2478 35.7464 41.1309 35.8196 40.9872C35.9029 40.8238 35.9029 40.6099 35.9029 40.1821V38.6915C35.9029 38.3828 35.9029 38.2284 35.9468 38.1045C35.989 37.9857 36.042 37.9026 36.132 37.8144C36.2259 37.7224 36.3849 37.6485 36.703 37.5009C38.2036 36.8042 39.4841 35.7134 40.4116 34.3615C40.5746 34.1238 40.6562 34.0049 40.7433 33.9347C40.8265 33.8675 40.9013 33.8282 41.0038 33.7975C41.1109 33.7654 41.2382 33.7654 41.4926 33.7654H42.3196C42.7474 33.7654 42.9613 33.7654 43.1247 33.6821C43.2684 33.6089 43.3853 33.4921 43.4585 33.3483C43.5418 33.1849 43.5418 32.971 43.5418 32.5432V27.327C43.5418 26.9197 43.5418 26.716 43.4661 26.5589C43.391 26.403 43.2653 26.2773 43.1094 26.2022C42.9523 26.1265 42.7486 26.1265 42.3413 26.1265C42.0465 26.1265 41.8991 26.1265 41.7804 26.0865C41.6524 26.0433 41.5626 25.9859 41.4697 25.8878C41.3836 25.7969 41.3133 25.6447 41.1726 25.3404C40.7212 24.3638 40.103 23.4801 39.3545 22.7257C39.196 22.566 39.1167 22.4861 39.0699 22.4092C39.0253 22.3359 38.9993 22.2728 38.9794 22.1893C38.9585 22.1018 38.9585 22.0023 38.9585 21.8032V20.108C38.9585 19.5579 38.9585 19.2829 38.8439 19.098C38.7436 18.936 38.5863 18.8174 38.4031 18.7654C38.1938 18.7061 37.9294 18.7816 37.4005 18.9328L33.7757 19.9684C33.7141 19.986 33.6833 19.9948 33.652 20.001C33.6242 20.0064 33.5961 20.0104 33.5678 20.0127C33.536 20.0154 33.5038 20.0154 33.4392 20.0154H26.7361M17.5695 29.1821H16.0418C14.3543 29.1821 12.9862 27.8141 12.9862 26.1265C12.9862 24.9955 13.6007 24.0081 14.514 23.4797M26.7361 20.0154H32.7932C32.8289 19.7659 32.8473 19.5109 32.8473 19.2515C32.8473 16.2983 30.4533 13.9043 27.5001 13.9043C24.5469 13.9043 22.1529 16.2983 22.1529 19.2515C22.1529 19.8889 22.2644 20.5003 22.469 21.0671C23.7435 20.3955 25.1954 20.0154 26.7361 20.0154Z" stroke="black" stroke-linecap="round" stroke-linejoin="round"/>
</g>
<defs>
<clipPath id="clip0_5703_1659">
<rect width="55" height="55" fill="white" transform="translate(0.764008 0.154297)"/>
</clipPath>
</defs>
</svg>
