<svg width="56" height="56" viewBox="0 0 56 56" fill="none" xmlns="http://www.w3.org/2000/svg">
<g clip-path="url(#clip0_5703_1669)">
<circle cx="27.9999" cy="27.6543" r="26.9983" stroke="black" stroke-linecap="round" stroke-dasharray="2 4"/>
<path d="M19.4446 30.0988H35.4994C36.7373 30.0988 37.3562 30.0988 37.849 29.868C38.283 29.6647 38.6477 29.3383 38.8977 28.9293C39.1815 28.4651 39.2499 27.8499 39.3866 26.6196L40.1016 20.1846C40.1433 19.8088 40.1642 19.6209 40.1038 19.4754C40.0507 19.3477 39.9559 19.2418 39.8348 19.1749C39.6969 19.0988 39.5079 19.0988 39.1298 19.0988H18.8335M15.7778 15.4321H17.3036C17.6271 15.4321 17.7888 15.4321 17.9153 15.4936C18.0267 15.5478 18.119 15.6345 18.18 15.7423C18.2493 15.8647 18.2593 16.0261 18.2795 16.3489L19.3871 34.0709C19.4073 34.3937 19.4174 34.5551 19.4867 34.6775C19.5477 34.7853 19.64 34.872 19.7514 34.9262C19.8779 34.9877 20.0396 34.9877 20.363 34.9877H36.5556M22.5 39.2655H22.5122M33.5 39.2655H33.5122M23.1111 39.2655C23.1111 39.603 22.8375 39.8766 22.5 39.8766C22.1625 39.8766 21.8889 39.603 21.8889 39.2655C21.8889 38.928 22.1625 38.6544 22.5 38.6544C22.8375 38.6544 23.1111 38.928 23.1111 39.2655ZM34.1111 39.2655C34.1111 39.603 33.8375 39.8766 33.5 39.8766C33.1625 39.8766 32.8889 39.603 32.8889 39.2655C32.8889 38.928 33.1625 38.6544 33.5 38.6544C33.8375 38.6544 34.1111 38.928 34.1111 39.2655Z" stroke="black" stroke-linecap="round" stroke-linejoin="round"/>
</g>
<defs>
<clipPath id="clip0_5703_1669">
<rect width="55" height="55" fill="white" transform="translate(0.5 0.154297)"/>
</clipPath>
</defs>
</svg>
