<svg width="86" height="86" viewBox="0 0 86 86" fill="none" xmlns="http://www.w3.org/2000/svg">
<g clip-path="url(#clip0_5703_1785)">
<circle cx="43.0001" cy="42.6738" r="41.7247" stroke="black" stroke-linecap="round" stroke-dasharray="2 4"/>
<path d="M47.5561 34.021C47.1342 34.0223 46.7138 34.0697 46.3022 34.1624C45.4696 34.3479 44.6231 34.4642 43.7713 34.5103C43.8592 33.0576 44.3677 29.8653 47.1203 28.5387C47.2163 28.4988 47.3031 28.4398 47.3755 28.3653C47.4479 28.2907 47.5043 28.2022 47.5414 28.1052C47.5784 28.0081 47.5953 27.9045 47.591 27.8007C47.5866 27.6968 47.5612 27.595 47.5162 27.5014C47.4712 27.4077 47.4076 27.3242 47.3292 27.256C47.2509 27.1877 47.1594 27.1362 47.0605 27.1044C46.9615 27.0727 46.8572 27.0615 46.7537 27.0714C46.6503 27.0814 46.55 27.1123 46.4589 27.1624C45.4066 27.6644 44.5047 28.4344 43.8439 29.395C43.5122 28.6564 42.9678 28.0335 42.2803 27.6058C41.0951 26.8909 39.5659 26.8412 37.9678 27.4644C34.1448 28.9554 32.9978 28.8025 32.8755 28.7757C32.7082 28.7159 32.5254 28.7162 32.3583 28.7765C32.1912 28.8368 32.0504 28.9534 31.9599 29.1063C31.8695 29.2591 31.8351 29.4387 31.8626 29.6142C31.8902 29.7897 31.9779 29.9501 32.1109 30.0679C32.2906 30.2361 36.5839 33.933 40.319 33.933C40.5748 33.9346 40.8303 33.918 41.0837 33.8833C41.517 33.8183 41.9382 33.6895 42.3338 33.501C42.2803 33.8833 42.2535 34.2236 42.2421 34.5065C41.3836 34.4645 40.5304 34.3481 39.6921 34.1586C39.2805 34.0659 38.86 34.0184 38.4381 34.0171C33.923 34.0171 30.249 39.4689 30.249 46.1669C30.249 52.865 33.923 58.3167 38.4381 58.3167C38.8598 58.3167 39.2803 58.2706 39.6921 58.1791C41.8691 57.6859 44.1289 57.6859 46.306 58.1791C46.7177 58.2706 47.1382 58.3167 47.56 58.3167C52.075 58.3167 55.749 52.8688 55.749 46.1669C55.749 39.465 52.0712 34.021 47.5561 34.021ZM40.8619 32.3541C38.8395 32.6447 36.301 31.2072 34.6876 30.1023C35.9918 29.7945 37.2701 29.3854 38.5107 28.8789C39.6576 28.4316 40.7052 28.4393 41.4736 28.9019C42.1694 29.3224 42.6205 30.0985 42.7926 31.1575C42.5714 31.48 42.2856 31.7529 41.9532 31.959C41.6208 32.165 41.2491 32.2995 40.8619 32.3541ZM47.5561 56.7913C47.2477 56.7906 46.9401 56.7573 46.6386 56.6919C44.2402 56.1468 41.7502 56.1468 39.3518 56.6919C39.0503 56.7573 38.7428 56.7906 38.4343 56.7913C34.7641 56.7913 31.7744 52.0277 31.7744 46.1707C31.7744 40.3138 34.7641 35.5502 38.4343 35.5502C38.743 35.5503 39.0507 35.585 39.3518 35.6534C41.7504 36.1963 44.24 36.1963 46.6386 35.6534C46.9396 35.585 47.2474 35.5503 47.5561 35.5502C51.2263 35.5502 54.216 40.3176 54.216 46.1707C54.216 52.0239 51.2263 56.7913 47.5561 56.7913ZM37.7805 54.0693C37.6555 54.228 37.4727 54.3307 37.2721 54.3551C37.0715 54.3794 36.8694 54.3234 36.71 54.1992C35.3146 53.1097 33.686 50.3494 33.686 46.1707C33.686 45.968 33.7665 45.7735 33.9099 45.6301C34.0533 45.4867 34.2478 45.4061 34.4506 45.4061C34.6534 45.4061 34.8479 45.4867 34.9913 45.6301C35.1347 45.7735 35.2152 45.968 35.2152 46.1707C35.2152 49.558 36.4386 52.0468 37.6429 52.9988C37.8028 53.1227 37.907 53.305 37.9328 53.5056C37.9586 53.7062 37.9038 53.9089 37.7805 54.0693Z" fill="black"/>
</g>
<defs>
<clipPath id="clip0_5703_1785">
<rect width="85" height="85" fill="white" transform="translate(0.5 0.173828)"/>
</clipPath>
</defs>
</svg>
