<svg width="86" height="86" viewBox="0 0 86 86" fill="none" xmlns="http://www.w3.org/2000/svg">
<g clip-path="url(#clip0_5703_1767)">
<circle cx="43.0001" cy="42.6738" r="41.7247" stroke="black" stroke-linecap="round" stroke-dasharray="2 4"/>
<path fill-rule="evenodd" clip-rule="evenodd" d="M38.8912 28.7802L33.9747 37.2957L36.6949 36.9358C37.1214 36.8773 37.5243 37.1806 37.5843 37.6166C37.6396 38.0479 37.3347 38.446 36.9019 38.506L32.5988 39.0731L32.5945 39.0733L32.5944 39.0733C32.5612 39.0748 32.5294 39.0763 32.4961 39.0763C32.1643 39.0763 31.8642 38.863 31.7505 38.5471L30.3587 34.5551C30.2134 34.1444 30.4314 33.6926 30.8437 33.5505C31.256 33.3988 31.7078 33.6231 31.8516 34.0354L32.6727 36.3942L37.5232 27.9904C38.6432 26.0537 40.7236 24.8563 42.9589 24.8563C45.1958 24.8563 47.2778 26.06 48.3947 27.992L52.2239 34.6204C52.4434 34.9979 52.3139 35.4813 51.93 35.6993C51.5541 35.9205 51.0691 35.7925 50.8527 35.4102L47.0298 28.7818C46.1941 27.3332 44.6318 26.436 42.9605 26.436C41.2892 26.436 39.7268 27.3317 38.8912 28.7802ZM47.03 56.542H53.6394C55.791 56.542 57.9441 55.215 59.1305 53.1646C60.271 51.19 60.29 48.5692 59.1794 46.6452L54.3045 38.1874C54.3025 38.1839 54.3004 38.1804 54.2983 38.1769L57.1277 38.3316C57.5653 38.4059 57.9365 38.0204 57.957 37.586C57.9776 37.1516 57.6442 36.7819 57.2098 36.7551L52.9115 36.5229C52.5987 36.4992 52.3064 36.6714 52.1643 36.951L50.4203 40.3884C50.2228 40.7738 50.3808 41.2525 50.7725 41.45C50.8879 41.5068 51.0079 41.5353 51.128 41.5353C51.4155 41.5353 51.6935 41.3773 51.8388 41.0977L52.9224 38.9579C52.9259 38.9644 52.9296 38.9709 52.9333 38.9773L57.8098 47.4334C58.6344 48.8583 58.6155 50.8914 57.7577 52.3731C56.8668 53.9228 55.2097 54.9623 53.6394 54.9623H47.03C46.5956 54.9623 46.2401 55.3161 46.2401 55.7521C46.2401 56.1881 46.5956 56.542 47.03 56.542ZM42.0313 56.5422H32.285C30.1967 56.5422 28.0609 55.1852 26.8493 53.0842C25.7182 51.1333 25.7182 48.6026 26.8493 46.6485L30.3262 40.2855C30.5363 39.9032 31.0181 39.7626 31.4004 39.9727C31.7827 40.1812 31.9217 40.6646 31.7116 41.0469L28.2252 47.4241C27.3769 48.898 27.3769 50.8474 28.2157 52.3023C29.1541 53.9199 30.7496 54.9688 32.285 54.9688H42.0245L40.1434 52.31C39.8939 51.9498 39.9792 51.4601 40.3314 51.2089C40.6869 50.9577 41.1797 51.0399 41.4325 51.3969L44.1906 55.2972C44.3818 55.5705 44.3818 55.9322 44.1938 56.2055L41.4356 60.1548C41.2824 60.3743 41.036 60.4912 40.788 60.4912C40.63 60.4912 40.4736 60.4454 40.3362 60.3491C39.9776 60.0995 39.8907 59.6066 40.1403 59.2496L42.0313 56.5422Z" fill="black"/>
</g>
<defs>
<clipPath id="clip0_5703_1767">
<rect width="85" height="85" fill="white" transform="translate(0.5 0.173828)"/>
</clipPath>
</defs>
</svg>
