<svg width="86" height="86" viewBox="0 0 86 86" fill="none" xmlns="http://www.w3.org/2000/svg">
<g clip-path="url(#clip0_5703_1777)">
<circle cx="43.0001" cy="42.6738" r="41.7247" stroke="black" stroke-linecap="round" stroke-dasharray="2 4"/>
<path fill-rule="evenodd" clip-rule="evenodd" d="M59.8051 25.6729C61.014 40.0867 56.5974 49.8946 47.9687 52.0797C47.9865 52.6874 47.9709 53.2941 47.9213 53.8979C47.8859 54.3175 47.5309 54.6218 47.0914 54.6003C46.6687 54.5649 46.3537 54.1915 46.3875 53.7719C46.6324 50.7937 45.9617 47.7255 44.4673 44.8162C44.3605 44.7075 44.2903 44.5714 44.2616 44.4264C43.5184 43.0545 42.5911 41.7208 41.4894 40.4517C41.1647 40.0776 40.8286 39.7139 40.4823 39.3615C40.3365 39.286 40.2246 39.1698 40.1538 39.0336C36.5709 35.5237 31.9738 33.1859 27.6635 32.715C27.0503 41.5628 28.7547 49.0137 32.3833 53.2401C34.5934 55.8129 37.5058 57.2422 41.0345 57.4819C41.4571 57.5127 41.7768 57.8784 41.7491 58.3011C41.7276 58.7068 41.3895 59.0188 40.9868 59.0188C40.9699 59.0188 40.953 59.0188 40.933 59.0157C36.9786 58.7422 33.7112 57.1361 31.2214 54.2406C27.1625 49.5147 25.3782 41.5521 26.1927 31.8205C26.2266 31.404 26.5631 31.0597 27.0027 31.1181C31.6466 31.3895 36.6681 33.7291 40.6378 37.3757C44.3422 30.538 51.8944 25.386 58.9951 24.9705C59.404 24.9306 59.7728 25.2595 59.8051 25.6729ZM45.9152 44.2674C46.939 46.3 47.5928 48.4084 47.8507 50.521C58.6557 47.5707 58.7217 32.3735 58.3327 26.5673C51.8219 27.2738 45.04 32.152 41.7843 38.4963C42.081 38.8049 42.3702 39.1213 42.6513 39.445C43.5661 40.4979 44.369 41.5941 45.0553 42.7204C48.5085 37.1354 52.9176 32.0441 55.1757 29.8593C55.4831 29.5688 55.9688 29.5719 56.2623 29.8808C56.5558 30.182 56.5497 30.6738 56.2439 30.9674C53.9443 33.1888 49.3504 38.5164 45.9152 44.2674ZM44.2659 59.7795C44.3458 60.1376 44.6624 60.3805 45.0144 60.3805C45.0697 60.3805 45.1266 60.3759 45.1819 60.3636C45.5953 60.2637 45.8566 59.8579 45.7628 59.4414C43.834 50.8533 34.7295 39.7985 30.8719 36.0684C30.5692 35.778 30.0804 35.7856 29.7853 36.0899C29.4918 36.3973 29.501 36.883 29.8069 37.175C33.5599 40.799 42.4124 51.528 44.2659 59.7795Z" fill="black"/>
</g>
<defs>
<clipPath id="clip0_5703_1777">
<rect width="85" height="85" fill="white" transform="translate(0.5 0.173828)"/>
</clipPath>
</defs>
</svg>
