<svg width="25" height="26" viewBox="0 0 25 26" fill="none" xmlns="http://www.w3.org/2000/svg">
<g clip-path="url(#clip0_5491_1481)">
<circle cx="12.728" cy="12.6868" r="12.272" fill="#77FBB9"/>
<path fill-rule="evenodd" clip-rule="evenodd" d="M5.09375 12.9148C5.09375 8.70855 8.49765 5.28033 12.7282 5.28033C12.9957 5.28033 13.2145 5.49916 13.2145 5.76661C13.2145 6.03406 12.9957 6.25288 12.7282 6.25288C9.05686 6.25288 6.06629 9.24345 6.06629 12.9148C6.06629 16.5861 9.05686 19.5767 12.7282 19.5767C16.3996 19.5767 19.3901 16.5861 19.3901 12.9148C19.3901 12.6473 19.609 12.4285 19.8764 12.4285C20.1438 12.4285 20.3627 12.6473 20.3627 12.9148C20.3627 17.1454 16.9588 20.5493 12.7282 20.5493C8.49765 20.5493 5.09375 17.121 5.09375 12.9148ZM8.91097 11.5532C9.10548 11.383 9.42155 11.4073 9.59175 11.6018L12.1933 14.3979L19.2442 7.34697C19.4387 7.15246 19.7305 7.15246 19.925 7.34697C20.1195 7.54148 20.1195 7.83324 19.925 8.02775L12.5094 15.4434C12.4121 15.5406 12.2906 15.5893 12.169 15.5893C12.0474 15.5893 11.9259 15.5406 11.8286 15.4434L8.88666 12.2583L8.86234 12.234C8.69215 12.0395 8.71646 11.7234 8.91097 11.5532Z" fill="black"/>
</g>
<defs>
<clipPath id="clip0_5491_1481">
<rect width="25" height="25" fill="white" transform="translate(0 0.414795)"/>
</clipPath>
</defs>
</svg>
